<!DOCTYPE svg PUBLIC "-//W3C//DTD SVG 1.1//EN" "http://www.w3.org/Graphics/SVG/1.1/DTD/svg11.dtd">

<!-- Uploaded to: SVG Repo, www.svgrepo.com, Transformed by: SVG Repo Mixer Tools -->
<svg width="100px" height="50px" viewBox="0 0 24 24" id="Layer_1" data-name="Layer 1" xmlns="http://www.w3.org/2000/svg" fill="#FFC93C" stroke="#FFC93C">

<g id="SVGRepo_bgCarrier" stroke-width="0"/>

<g id="SVGRepo_tracerCarrier" stroke-linecap="round" stroke-linejoin="round"/>

<g id="SVGRepo_iconCarrier">

<defs>

<style>.cls-1{fill:none;stroke:#02020;stroke-miterlimit:10;stroke-width:1.6799999999999997;}</style>

</defs>

<polygon class="cls-1" points="12 2.48 13.18 4.99 15.82 5.39 13.91 7.35 14.36 10.11 12 8.81 9.64 10.11 10.09 7.35 8.18 5.39 10.82 4.99 12 2.48"/>

<polyline class="cls-1" points="18.59 7.25 22.5 7.25 22.5 22.52 1.5 22.52 1.5 7.25 5.41 7.25"/>

<polyline class="cls-1" points="1.5 7.25 12 17.75 22.5 7.25"/>

<line class="cls-1" x1="9.14" y1="14.89" x2="1.5" y2="22.52"/>

<line class="cls-1" x1="22.5" y1="22.52" x2="14.86" y2="14.89"/>

<polyline class="cls-1" points="18.59 7.25 22.5 7.25 22.5 22.52 1.5 22.52 1.5 7.25 5.41 7.25"/>

</g>

</svg>