<!DOCTYPE svg PUBLIC "-//W3C//DTD SVG 1.1//EN" "http://www.w3.org/Graphics/SVG/1.1/DTD/svg11.dtd">

<!-- Uploaded to: SVG Repo, www.svgrepo.com, Transformed by: SVG Repo Mixer Tools -->
<svg height="33px" width="50px" version="1.1" id="Layer_1" xmlns="http://www.w3.org/2000/svg" xmlns:xlink="http://www.w3.org/1999/xlink" viewBox="-51.2 -51.2 614.40 614.40" xml:space="preserve" fill="#FFC93C" transform="rotate(-45)" stroke="#FFC93C" stroke-width="0.00512">

<g id="SVGRepo_bgCarrier" stroke-width="0"/>

<g id="SVGRepo_tracerCarrier" stroke-linecap="round" stroke-linejoin="round"/>

<g id="SVGRepo_iconCarrier"> <g> <g> <g> <path style="fill:#231F2;" d="M349.482,78.437h-60.79c-10.621,0-19.231,8.61-19.231,19.231v12.04l-155.996,46.406 c-1.277-9.383-9.3-16.622-19.033-16.622H19.231C8.61,139.492,0,148.102,0,158.722v138.71c0,10.62,8.61,19.231,19.231,19.231 h75.201c9.733,0,17.756-7.238,19.033-16.621l14.356,4.271v110.019c0,10.621,8.61,19.231,19.231,19.231h57.459 c10.621,0,19.231-8.61,19.231-19.231v-81.485l45.721,13.601v12.038c0,10.62,8.61,19.231,19.231,19.231h60.788 c10.621,0,19.231-8.61,19.231-19.231V97.667C368.713,87.047,360.103,78.437,349.482,78.437z M75.201,278.203h-36.74V177.954 h36.74C75.201,179.779,75.201,276.603,75.201,278.203z M185.279,395.103h-18.997v-79.346l18.997,5.651V395.103z M269.462,306.324 c-15.44-4.592-152.18-45.272-155.799-46.349v-63.792l155.799-46.349V306.324z M307.923,339.26c0-8.01,0-209.165,0-222.36h22.327 v222.36H307.923z"/> <path style="fill:#231F2;" d="M492.769,208.848H416.94c-10.621,0-19.231,8.61-19.231,19.231c0,10.621,8.61,19.231,19.231,19.231 h75.829c10.62,0,19.231-8.61,19.231-19.231C512,217.458,503.391,208.848,492.769,208.848z"/> <path style="fill:#231F2;" d="M428.687,172.484l53.619-53.619c7.51-7.51,7.51-19.686,0-27.196c-7.509-7.51-19.686-7.51-27.196,0 l-53.619,53.619c-7.51,7.51-7.51,19.687,0,27.196C409,179.994,421.178,179.996,428.687,172.484z"/> <path style="fill:#231F2;" d="M428.687,283.674c-7.509-7.51-19.686-7.51-27.196,0s-7.51,19.686,0,27.196l53.619,53.619 c7.509,7.51,19.686,7.512,27.196,0c7.51-7.51,7.51-19.686,0-27.196L428.687,283.674z"/> </g> </g> </g> </g>

</svg>